<svg 
enable-background="new 0 0 32 32" 
height="30"
viewBox="0 0 32 30" 
xmlns="http://www.w3.org/2000/svg" 
class="hover-icon">
<path class="icon-path" d="m27.342 4.061-11-4c-.221-.08-.463-.08-.684 0l-11 4c-.395.143-.658.518-.658.939v15.683c0 1.735.847 3.349 2.292 4.332l9.172 5.829c.164.104.349.156.536.156.204 0 .407-.062.581-.186l8.153-5.817c1.403-.954 3.266-2.44 3.266-4.314v-15.683c0-.421-.263-.796-.658-.939zm-11.342-1.997 10 3.636v2.872l-9.658-3.512c-.221-.08-.463-.08-.684 0l-9.658 3.513v-2.873zm7.591 21.292-7.623 5.438-8.577-5.45c-.87-.593-1.391-1.588-1.391-2.661v-9.983l10-3.636 10 3.636v9.982c0 .386-.311 1.245-2.409 2.674z">
</path>
<path class="icon-path" d="m14.017 19.638-2.412-1.834-1.21 1.592 3.899 2.966 8.46-9.705-1.508-1.314z">
</path>
</svg>