<svg  height="30" version="1.1" xmlns="http://www.w3.org/2000/svg" xmlns:xlink="http://www.w3.org/1999/xlink" x="0px" y="0px" viewBox="0 0 32 32" style="enable-background:new 0 0 32 32;" xml:space="preserve" class="hover-icon"><g id="Design"><g><path class="icon-path" d="M16,0C7.178,0,0,7.178,0,16s7.178,16,16,16s16-7.178,16-16S24.822,0,16,0z M17,29.949V28h-2v1.949
			C8.079,29.457,2.543,23.921,2.051,17H4v-2H2.051C2.543,8.079,8.079,2.543,15,2.051V4h2V2.051C23.921,2.543,29.457,8.079,29.949,15
			H28v2h1.949C29.457,23.921,23.921,29.457,17,29.949z"></path><path class="icon-path" d="M16.136,15.648L8.748,7.335L7.252,8.665l8,9C15.449,17.886,15.724,18,16,18c0.209,0,0.42-0.065,0.6-0.2l8-6
			l-1.2-1.6L16.136,15.648z"></path></g></g></svg>