<svg
    height="455"
    viewBox="0 0 1440 455"
    width="1440"
    xmlns="http://www.w3.org/2000/svg"
    xmlns:xlink="http://www.w3.org/1999/xlink">
    <linearGradient id="a" x1="7.26015%" x2="125.494885%" y1="18.348163%" y2="-11.986685%">
        <stop offset="0" stop-color="#284b76"/>
        <stop offset=".25845847" stop-color="#38669e"/>
        <stop offset=".700896557" stop-color="#38669e"/>
        <stop offset="1" stop-color="#38669e"/>
    </linearGradient>
    <g fill="none" fill-rule="evenodd" transform="translate(-2)">
        <path 
            d="m1442 454.119602h-1442c0-161.26559 0-248.10726 0-260.525008 236.914133 96.111122 551.730917 52.36699 789.091945-21.264716 171.942975-53.338389 456.474715-191.7336966 652.908055-170.04275314z"
            fill="url(#a)"
            transform="matrix(-1 0 0 -1 1442 454.119602)"/>
        <path
            d="m1445 387.544843h-1443.60139588c-.93240274-95.049999-1.39860412-142.574998-1.39860412-142.574998 165.471833 14.736059 474.133529-30.629912 702.294255-96.452851 278.939498-80.4722966 537.631425-167.4184048 742.705745-144.90702643z"
            fill="#284b76"
            transform="matrix(-1 0 0 -1 1445 387.544842)"/>
    </g>
</svg>